<svg viewBox="0 0 95 95" fill="none" xmlns="http://www.w3.org/2000/svg"><circle cx="47.5" cy="47.5" r="47.5" fill="#231F20"/><path d="M38.0356 59.9565V36.0435C38.0356 36.0435 42.9742 36.0435 52.8515 36.0435C55.2454 36.0435 57.2973 37.221 59.0072 39.5761C60.7373 41.911 61.6023 44.719 61.6023 48C61.6023 51.3011 60.7373 54.1192 59.0072 56.4541C57.2973 58.789 55.2454 59.9565 52.8515 59.9565H38.0356ZM40.2082 57.7826H52.8515C54.6419 57.7826 56.1708 56.8265 57.4381 54.9143C58.7256 53.002 59.3693 50.6973 59.3693 48C59.3693 45.2826 58.7256 42.9779 57.4381 41.0857C56.1708 39.1735 54.6419 38.2174 52.8515 38.2174H40.2082V57.7826ZM35.863 62.1304H52.8515C55.8489 62.1304 58.4239 60.7516 60.5763 57.994C62.7489 55.2162 63.8352 51.8849 63.8352 48C63.8352 45.4436 63.3323 43.0785 62.3265 40.9046C61.3408 38.7307 60.003 37.0197 58.3132 35.7717C56.6435 34.5036 54.823 33.8696 52.8515 33.8696H35.863V62.1304ZM33.6904 64.3043V31.6957H52.8515C55.2052 31.6957 57.3979 32.4203 59.4297 33.8696C61.4615 35.3188 63.0708 37.3015 64.2577 39.8176C65.4647 42.3136 66.0682 45.0411 66.0682 48C66.0682 50.9388 65.4647 53.6663 64.2577 56.1824C63.0708 58.6985 61.4615 60.6812 59.4297 62.1304C57.3979 63.5797 55.2052 64.3043 52.8515 64.3043H33.6904ZM31.5178 66.4783H52.8515C55.6075 66.4783 58.1623 65.653 60.516 64.0024C62.8898 62.3519 64.7807 60.1075 66.1889 57.2693C67.5971 54.4312 68.3011 51.3414 68.3011 48C68.3011 44.6787 67.5971 41.599 66.1889 38.7609C64.7807 35.9026 62.8898 33.6481 60.516 31.9976C58.1422 30.347 55.5874 29.5217 52.8515 29.5217H31.5178V66.4783ZM29.3452 68.6522V27.3478H52.8515C55.9897 27.3478 58.9167 28.2738 61.6325 30.1256C64.3482 31.9573 66.5108 34.4634 68.1201 37.6437C69.7294 40.8241 70.5341 44.2762 70.5341 48C70.5341 51.7238 69.7294 55.1759 68.1201 58.3563C66.5108 61.5366 64.3482 64.0527 61.6325 65.9046C58.9167 67.7363 55.9897 68.6522 52.8515 68.6522H29.3452ZM27.1726 70.8261H52.8515C55.4868 70.8261 58.0316 70.2222 60.4858 69.0145C62.9401 67.8068 65.0624 66.1864 66.8527 64.1534C68.6431 62.1204 70.0714 59.6948 71.1376 56.8768C72.2239 54.0386 72.767 51.0797 72.767 48C72.767 44.9203 72.2239 41.9714 71.1376 39.1534C70.0714 36.3353 68.6431 33.9098 66.8527 31.8768C65.0624 29.8237 62.9401 28.1932 60.4858 26.9855C58.0316 25.7778 55.4868 25.1739 52.8515 25.1739H27.1726V70.8261ZM52.8515 73H25V23H52.8515C56.7743 23 60.4355 24.1171 63.8352 26.3514C67.235 28.5857 69.9407 31.6252 71.9523 35.4698C73.9841 39.3144 75 43.4911 75 48C75 51.3816 74.3965 54.6224 73.1895 57.7222C72.0026 60.8019 70.4134 63.4589 68.4218 65.6932C66.4303 67.9275 64.0666 69.7089 61.3307 71.0374C58.615 72.3458 55.7886 73 52.8515 73Z" fill="#F9F4FF"/></svg>
